<?xml version="1.0" encoding="UTF-8" standalone="no"?>
<!DOCTYPE svg PUBLIC "-//W3C//DTD SVG 1.1//EN"
 "http://www.w3.org/Graphics/SVG/1.1/DTD/svg11.dtd">
<!-- Generated by graphviz version 13.1.2 (20250809.0930)
 -->
<!-- Title: dag Pages: 1 -->
<svg width="1849pt" height="737pt"
 viewBox="0.00 0.00 1849.00 737.00" xmlns="http://www.w3.org/2000/svg" xmlns:xlink="http://www.w3.org/1999/xlink">
<g id="graph0" class="graph" transform="scale(1 1) rotate(0) translate(4 732.6)">
<title>dag</title>
<polygon fill="white" stroke="none" points="-4,4 -4,-732.6 1844.94,-732.6 1844.94,4 -4,4"/>
<!-- v0 -->
<g id="node1" class="node">
<title>v0</title>
<ellipse fill="black" stroke="black" cx="948.68" cy="-707.75" rx="3.6" ry="3.6"/>
<text xml:space="preserve" text-anchor="middle" x="906.83" y="-715.3" font-family="Times,serif" font-size="14.00">Channel.of</text>
</g>
<!-- v1 -->
<g id="node2" class="node">
<title>v1</title>
<ellipse fill="none" stroke="black" cx="948.68" cy="-663.55" rx="3.6" ry="3.6"/>
<text xml:space="preserve" text-anchor="middle" x="921.83" y="-671.1" font-family="Times,serif" font-size="14.00">flatten</text>
</g>
<!-- v0&#45;&gt;v1 -->
<g id="edge1" class="edge">
<title>v0&#45;&gt;v1</title>
<path fill="none" stroke="black" d="M948.68,-703.72C948.68,-698.56 948.68,-687.76 948.68,-678.81"/>
<polygon fill="black" stroke="black" points="952.18,-678.85 948.68,-668.85 945.18,-678.85 952.18,-678.85"/>
</g>
<!-- v5 -->
<g id="node3" class="node">
<title>v5</title>
<ellipse fill="none" stroke="black" cx="332.68" cy="-588.7" rx="332.68" ry="18"/>
<text xml:space="preserve" text-anchor="middle" x="332.68" y="-584.03" font-family="Times,serif" font-size="14.00">DOWNLOAD_AND_PROCESS:DOWNLOAD_ASSEMBLY_REPORT</text>
</g>
<!-- v1&#45;&gt;v5 -->
<g id="edge2" class="edge">
<title>v1&#45;&gt;v5</title>
<path fill="none" stroke="black" d="M945.06,-662.12C911.28,-658.13 648.58,-627.06 478.4,-606.93"/>
<polygon fill="black" stroke="black" points="478.92,-603.47 468.58,-605.77 478.1,-610.42 478.92,-603.47"/>
<text xml:space="preserve" text-anchor="middle" x="827.78" y="-628.65" font-family="Times,serif" font-size="14.00">genome_build_ch</text>
</g>
<!-- v6 -->
<g id="node10" class="node">
<title>v6</title>
<ellipse fill="none" stroke="black" cx="948.68" cy="-588.7" rx="265.33" ry="18"/>
<text xml:space="preserve" text-anchor="middle" x="948.68" y="-584.03" font-family="Times,serif" font-size="14.00">DOWNLOAD_AND_PROCESS:DOWNLOAD_DBSNP</text>
</g>
<!-- v1&#45;&gt;v6 -->
<g id="edge7" class="edge">
<title>v1&#45;&gt;v6</title>
<path fill="none" stroke="black" d="M948.68,-659.78C948.68,-652.92 948.68,-634.51 948.68,-618.28"/>
<polygon fill="black" stroke="black" points="952.18,-618.56 948.68,-608.56 945.18,-618.56 952.18,-618.56"/>
<text xml:space="preserve" text-anchor="middle" x="1009.8" y="-628.65" font-family="Times,serif" font-size="14.00">genome_build_ch</text>
</g>
<!-- v7 -->
<g id="node12" class="node">
<title>v7</title>
<ellipse fill="none" stroke="black" cx="1536.68" cy="-588.7" rx="304.27" ry="18"/>
<text xml:space="preserve" text-anchor="middle" x="1536.68" y="-584.03" font-family="Times,serif" font-size="14.00">DOWNLOAD_AND_PROCESS:DOWNLOAD_DBSNP_INDEX</text>
</g>
<!-- v1&#45;&gt;v7 -->
<g id="edge9" class="edge">
<title>v1&#45;&gt;v7</title>
<path fill="none" stroke="black" d="M952.43,-662.08C985.94,-657.93 1236.24,-626.92 1398.17,-606.86"/>
<polygon fill="black" stroke="black" points="1398.2,-610.38 1407.69,-605.68 1397.33,-603.44 1398.2,-610.38"/>
<text xml:space="preserve" text-anchor="middle" x="1303.8" y="-628.65" font-family="Times,serif" font-size="14.00">genome_build_ch</text>
</g>
<!-- v8 -->
<g id="node9" class="node">
<title>v8</title>
<ellipse fill="none" stroke="black" cx="606.68" cy="-515.7" rx="229.56" ry="18"/>
<text xml:space="preserve" text-anchor="middle" x="606.68" y="-511.03" font-family="Times,serif" font-size="14.00">DOWNLOAD_AND_PROCESS:CHROM_MAP</text>
</g>
<!-- v5&#45;&gt;v8 -->
<g id="edge6" class="edge">
<title>v5&#45;&gt;v8</title>
<path fill="none" stroke="black" d="M398.66,-570.6C438.63,-560.24 489.76,-547 531.32,-536.23"/>
<polygon fill="black" stroke="black" points="531.95,-539.68 540.75,-533.78 530.19,-532.9 531.95,-539.68"/>
</g>
<!-- v2 -->
<g id="node4" class="node">
<title>v2</title>
<ellipse fill="black" stroke="black" cx="1013.68" cy="-457.1" rx="3.6" ry="3.6"/>
<text xml:space="preserve" text-anchor="middle" x="971.83" y="-464.65" font-family="Times,serif" font-size="14.00">Channel.of</text>
</g>
<!-- v3 -->
<g id="node5" class="node">
<title>v3</title>
<ellipse fill="none" stroke="black" cx="1013.68" cy="-398.5" rx="3.6" ry="3.6"/>
<text xml:space="preserve" text-anchor="middle" x="1033.33" y="-406.05" font-family="Times,serif" font-size="14.00">flatten</text>
</g>
<!-- v2&#45;&gt;v3 -->
<g id="edge3" class="edge">
<title>v2&#45;&gt;v3</title>
<path fill="none" stroke="black" d="M1013.68,-453.06C1013.68,-445.84 1013.68,-427.3 1013.68,-414.06"/>
<polygon fill="black" stroke="black" points="1017.18,-414.07 1013.68,-404.07 1010.18,-414.07 1017.18,-414.07"/>
</g>
<!-- v12 -->
<g id="node6" class="node">
<title>v12</title>
<ellipse fill="none" stroke="black" cx="871.68" cy="-323.65" rx="3.6" ry="3.6"/>
<text xml:space="preserve" text-anchor="middle" x="838.08" y="-331.2" font-family="Times,serif" font-size="14.00">combine</text>
</g>
<!-- v3&#45;&gt;v12 -->
<g id="edge4" class="edge">
<title>v3&#45;&gt;v12</title>
<path fill="none" stroke="black" d="M1012.17,-394.74C1010.04,-391.05 1005.83,-384.53 1000.68,-380.5 964.33,-352.1 911.34,-335.19 886.09,-328.29"/>
<polygon fill="black" stroke="black" points="887.22,-324.97 876.67,-325.85 885.47,-331.74 887.22,-324.97"/>
<text xml:space="preserve" text-anchor="middle" x="1036.64" y="-349.2" font-family="Times,serif" font-size="14.00">output_chroms_ch</text>
</g>
<!-- v13 -->
<g id="node15" class="node">
<title>v13</title>
<ellipse fill="none" stroke="black" cx="871.68" cy="-265.05" rx="250.08" ry="18"/>
<text xml:space="preserve" text-anchor="middle" x="871.68" y="-260.37" font-family="Times,serif" font-size="14.00">DOWNLOAD_AND_PROCESS:FILTER_CHROMS</text>
</g>
<!-- v12&#45;&gt;v13 -->
<g id="edge15" class="edge">
<title>v12&#45;&gt;v13</title>
<path fill="none" stroke="black" d="M871.68,-319.61C871.68,-314.79 871.68,-304.92 871.68,-294.95"/>
<polygon fill="black" stroke="black" points="875.18,-295.02 871.68,-285.02 868.18,-295.02 875.18,-295.02"/>
</g>
<!-- v4 -->
<g id="node7" class="node">
<title>v4</title>
<ellipse fill="black" stroke="black" cx="1120.68" cy="-192.05" rx="3.6" ry="3.6"/>
<text xml:space="preserve" text-anchor="middle" x="1155.33" y="-199.6" font-family="Times,serif" font-size="14.00">Channel.of</text>
</g>
<!-- v15 -->
<g id="node8" class="node">
<title>v15</title>
<ellipse fill="none" stroke="black" cx="995.68" cy="-117.2" rx="3.6" ry="3.6"/>
<text xml:space="preserve" text-anchor="middle" x="962.08" y="-124.75" font-family="Times,serif" font-size="14.00">combine</text>
</g>
<!-- v4&#45;&gt;v15 -->
<g id="edge5" class="edge">
<title>v4&#45;&gt;v15</title>
<path fill="none" stroke="black" d="M1119.14,-188.33C1116.97,-184.69 1112.72,-178.21 1107.68,-174.05 1076.88,-148.62 1032.55,-130.91 1010.01,-122.95"/>
<polygon fill="black" stroke="black" points="1011.14,-119.63 1000.54,-119.75 1008.9,-126.27 1011.14,-119.63"/>
<text xml:space="preserve" text-anchor="middle" x="1106.93" y="-142.75" font-family="Times,serif" font-size="14.00">r_lib_ch</text>
</g>
<!-- v16 -->
<g id="node17" class="node">
<title>v16</title>
<ellipse fill="none" stroke="black" cx="995.68" cy="-58.6" rx="258.5" ry="18"/>
<text xml:space="preserve" text-anchor="middle" x="995.68" y="-53.92" font-family="Times,serif" font-size="14.00">DOWNLOAD_AND_PROCESS:PARTITION_DBSNP</text>
</g>
<!-- v15&#45;&gt;v16 -->
<g id="edge18" class="edge">
<title>v15&#45;&gt;v16</title>
<path fill="none" stroke="black" d="M995.68,-113.16C995.68,-108.34 995.68,-98.47 995.68,-88.5"/>
<polygon fill="black" stroke="black" points="999.18,-88.57 995.68,-78.57 992.18,-88.57 999.18,-88.57"/>
</g>
<!-- v10 -->
<g id="node13" class="node">
<title>v10</title>
<ellipse fill="none" stroke="black" cx="731.68" cy="-457.1" rx="3.6" ry="3.6"/>
<text xml:space="preserve" text-anchor="middle" x="714.95" y="-464.65" font-family="Times,serif" font-size="14.00">join</text>
</g>
<!-- v8&#45;&gt;v10 -->
<g id="edge11" class="edge">
<title>v8&#45;&gt;v10</title>
<path fill="none" stroke="black" d="M644.52,-497.56C669.49,-486.26 700.7,-472.13 718.19,-464.21"/>
<polygon fill="black" stroke="black" points="719.51,-467.45 727.18,-460.14 716.62,-461.07 719.51,-467.45"/>
</g>
<!-- v9 -->
<g id="node11" class="node">
<title>v9</title>
<ellipse fill="none" stroke="black" cx="948.68" cy="-515.7" rx="3.6" ry="3.6"/>
<text xml:space="preserve" text-anchor="middle" x="931.95" y="-523.25" font-family="Times,serif" font-size="14.00">join</text>
</g>
<!-- v6&#45;&gt;v9 -->
<g id="edge8" class="edge">
<title>v6&#45;&gt;v9</title>
<path fill="none" stroke="black" d="M948.68,-570.51C948.68,-558.28 948.68,-542.05 948.68,-530.62"/>
<polygon fill="black" stroke="black" points="952.18,-530.89 948.68,-520.89 945.18,-530.89 952.18,-530.89"/>
</g>
<!-- v9&#45;&gt;v10 -->
<g id="edge12" class="edge">
<title>v9&#45;&gt;v10</title>
<path fill="none" stroke="black" d="M945.27,-513.81C922.4,-507.85 790.87,-473.54 746.38,-461.93"/>
<polygon fill="black" stroke="black" points="747.27,-458.55 736.71,-459.41 745.5,-465.32 747.27,-458.55"/>
</g>
<!-- v7&#45;&gt;v9 -->
<g id="edge10" class="edge">
<title>v7&#45;&gt;v9</title>
<path fill="none" stroke="black" d="M1406.55,-571.99C1256.85,-553.91 1023.88,-525.78 963.41,-518.48"/>
<polygon fill="black" stroke="black" points="964.18,-515.05 953.83,-517.32 963.34,-522 964.18,-515.05"/>
</g>
<!-- v11 -->
<g id="node14" class="node">
<title>v11</title>
<ellipse fill="none" stroke="black" cx="731.68" cy="-398.5" rx="260.07" ry="18"/>
<text xml:space="preserve" text-anchor="middle" x="731.68" y="-393.82" font-family="Times,serif" font-size="14.00">DOWNLOAD_AND_PROCESS:RENAME_CHROMS</text>
</g>
<!-- v10&#45;&gt;v11 -->
<g id="edge13" class="edge">
<title>v10&#45;&gt;v11</title>
<path fill="none" stroke="black" d="M731.68,-453.06C731.68,-448.24 731.68,-438.37 731.68,-428.4"/>
<polygon fill="black" stroke="black" points="735.18,-428.47 731.68,-418.47 728.18,-428.47 735.18,-428.47"/>
</g>
<!-- v11&#45;&gt;v12 -->
<g id="edge14" class="edge">
<title>v11&#45;&gt;v12</title>
<path fill="none" stroke="black" d="M764.85,-380.24C794.85,-364.63 837.47,-342.45 858.66,-331.42"/>
<polygon fill="black" stroke="black" points="860.19,-334.57 867.44,-326.85 856.96,-328.36 860.19,-334.57"/>
</g>
<!-- v14 -->
<g id="node16" class="node">
<title>v14</title>
<ellipse fill="none" stroke="black" cx="871.68" cy="-192.05" rx="226.93" ry="18"/>
<text xml:space="preserve" text-anchor="middle" x="871.68" y="-187.37" font-family="Times,serif" font-size="14.00">DOWNLOAD_AND_PROCESS:CREATE_TSV</text>
</g>
<!-- v13&#45;&gt;v14 -->
<g id="edge16" class="edge">
<title>v13&#45;&gt;v14</title>
<path fill="none" stroke="black" d="M871.68,-246.86C871.68,-239.28 871.68,-230.15 871.68,-221.59"/>
<polygon fill="black" stroke="black" points="875.18,-221.59 871.68,-211.59 868.18,-221.59 875.18,-221.59"/>
</g>
<!-- v14&#45;&gt;v15 -->
<g id="edge17" class="edge">
<title>v14&#45;&gt;v15</title>
<path fill="none" stroke="black" d="M901.06,-173.79C927.15,-158.46 964,-136.81 983.1,-125.59"/>
<polygon fill="black" stroke="black" points="984.64,-128.74 991.49,-120.66 981.1,-122.71 984.64,-128.74"/>
</g>
<!-- v17 -->
<g id="node18" class="node">
<title>v17</title>
<ellipse fill="black" stroke="black" cx="995.68" cy="-1.8" rx="1.8" ry="1.8"/>
</g>
<!-- v16&#45;&gt;v17 -->
<g id="edge19" class="edge">
<title>v16&#45;&gt;v17</title>
<path fill="none" stroke="black" d="M995.68,-40.26C995.68,-32.18 995.68,-22.74 995.68,-15.35"/>
<polygon fill="black" stroke="black" points="999.18,-15.51 995.68,-5.51 992.18,-15.51 999.18,-15.51"/>
</g>
</g>
</svg>
